<?xml version="1.0" standalone="no"?>
<!DOCTYPE svg PUBLIC "-//W3C//DTD SVG 20010904//EN"
 "http://www.w3.org/TR/2001/REC-SVG-20010904/DTD/svg10.dtd">
<svg version="1.0" xmlns="http://www.w3.org/2000/svg"
 width="409.000000pt" height="354.000000pt" viewBox="0 0 409.000000 354.000000"
 preserveAspectRatio="xMidYMid meet">
<metadata>
Created by potrace 1.15, written by Peter Selinger 2001-2017
</metadata>
<g transform="translate(0.000000,354.000000) scale(0.100000,-0.100000)"
fill="#000000" stroke="none">
<path d="M470 3182 c-8 -4 -27 -15 -42 -26 l-28 -18 0 -450 0 -450 29 -29 c25
-24 37 -29 80 -29 l51 0 -2 -436 -3 -437 -31 -2 c-38 -3 -93 -41 -100 -70 -2
-11 -3 -209 -2 -440 l3 -420 583 -3 582 -2 0 202 c0 289 -25 365 -159 499 -63
62 -90 81 -155 108 -97 40 -160 51 -303 51 l-112 0 -16 30 c-16 31 -78 56
-109 44 -15 -6 -16 34 -16 435 l0 441 314 0 313 0 27 25 26 24 0 451 c0 275
-4 458 -10 470 -20 37 -60 40 -489 39 -229 0 -423 -3 -431 -7z m597 -183 c70
-26 107 -88 107 -179 0 -141 -68 -209 -216 -218 -97 -6 -101 -10 -96 -133 l3
-89 -72 0 -73 0 0 315 0 315 159 0 c89 0 172 -5 188 -11z m113 -1925 c98 -29
173 -87 220 -170 44 -76 60 -152 60 -286 l0 -118 -300 0 -300 0 0 295 0 295
133 0 c93 0 150 -5 187 -16z"/>
<path d="M888 2904 c-10 -3 -21 -17 -24 -30 -8 -30 -1 -141 10 -151 4 -4 25
-8 46 -8 60 0 100 43 100 107 0 39 -4 50 -24 63 -26 17 -81 27 -108 19z"/>
<path d="M941 1023 c-37 -132 19 -345 119 -453 36 -40 38 -40 108 -40 65 0 72
2 72 20 0 11 -20 38 -44 61 -55 50 -98 117 -121 188 -14 44 -17 75 -12 158 l6
103 -59 0 -59 0 -10 -37z"/>
<path d="M1550 1987 c-17 -9 -26 -22 -28 -44 -4 -42 30 -67 123 -89 l75 -18 0
-48 c0 -47 -48 -261 -72 -321 -10 -25 -15 -28 -42 -23 -17 3 -61 8 -97 12
-122 12 -274 -37 -381 -123 -45 -36 -62 -72 -35 -74 6 0 34 -4 61 -8 43 -7 54
-5 110 24 33 18 86 38 117 45 52 12 182 11 193 -1 5 -5 -76 -194 -88 -206 -3
-4 -6 -15 -6 -25 0 -22 59 -98 77 -98 15 0 40 45 92 168 24 56 49 102 55 102
26 0 105 -90 137 -156 33 -66 34 -73 34 -189 0 -110 -2 -124 -27 -175 -37 -74
-101 -145 -168 -184 -54 -32 -55 -33 -58 -82 -4 -81 5 -85 92 -41 127 65 238
197 275 327 30 103 34 167 16 256 -29 137 -102 251 -225 349 l-35 27 35 -20
c19 -11 179 -102 355 -203 620 -354 550 -319 632 -319 71 0 73 -1 79 -27 25
-113 73 -201 154 -284 70 -71 132 -109 221 -139 183 -60 382 -15 522 119 118
111 166 213 174 372 5 91 3 117 -15 175 -58 189 -196 322 -387 375 -95 26
-208 23 -296 -9 l-56 -19 -13 21 c-85 134 -120 208 -120 250 l0 46 48 0 c56 0
72 12 72 55 0 60 -17 65 -206 65 -189 0 -214 -7 -214 -59 0 -45 27 -61 103
-61 67 0 67 0 67 -28 l0 -29 -117 -12 c-65 -7 -174 -19 -243 -27 -69 -8 -168
-19 -220 -24 -52 -6 -187 -21 -300 -34 -113 -14 -206 -23 -208 -21 -2 1 6 41
17 88 29 116 29 257 1 282 -11 10 -70 30 -132 46 -130 34 -116 32 -148 16z
m1283 -539 c-19 -51 -43 -115 -53 -143 -41 -112 -68 -182 -84 -219 -9 -21 -16
-47 -16 -58 0 -13 -5 -18 -14 -15 -44 17 -746 427 -731 427 26 0 694 74 810
89 33 5 74 9 91 10 l32 1 -35 -92z m175 -142 c-83 -76 -153 -207 -160 -300 -2
-21 -8 -26 -29 -26 l-27 0 29 73 c27 70 139 362 153 402 6 16 13 9 43 -44 l36
-64 -45 -41z m550 -16 c129 -59 219 -184 237 -330 9 -70 -14 -172 -57 -252
-124 -233 -459 -275 -651 -83 -45 45 -94 132 -107 191 l-8 33 220 3 c204 3
221 4 234 22 8 11 14 31 14 45 -1 15 -47 104 -105 201 -57 96 -100 179 -95
184 16 16 76 25 160 23 72 -3 96 -8 158 -37z m-368 -172 c40 -68 75 -126 77
-130 2 -5 -63 -8 -146 -8 l-150 0 6 33 c9 50 59 143 101 187 20 21 38 39 38
40 1 0 34 -55 74 -122z"/>
</g>
</svg>
